# xmcd
#
# Track frame offsets:
#	150
#	30990
#	55327
#	80310
#	108945
#	130702
#	157815
#	181930
#	203327
#	227062
#	251872
#
# Disc length: 3541 seconds
#
# Revision: 13
# Processed by: cddbd v1.5.2PL0 Copyright (c) Steve Scherf et al.
# Submitted via: EasyCDDAExtractor 15.3.0.1
#
DISCID=7b0dd30b
DTITLE=George Michael - Older
DYEAR=1996
DGENRE=Pop
TTITLE0=Jesus To A Child
TTITLE1=Fastlove
TTITLE2=Older
TTITLE3=Spinning The Wheel
TTITLE4=It Doesn't Really Matter
TTITLE5=The Strangest Thing
TTITLE6=To Be Forgiven
TTITLE7=Move On
TTITLE8=Star People
TTITLE9=You Have Been Loved
TTITLE10=Free
EXTD=YEAR: 1996
EXTT0=
EXTT1=
EXTT2=
EXTT3=
EXTT4=
EXTT5=
EXTT6=
EXTT7=
EXTT8=
EXTT9=
EXTT10=
PLAYORDER=
